<?xml version="1.0" encoding="UTF-8"?>
<svg version="1.1" viewBox="0 0 2048 2048" width="1280" height="1280" xmlns="http://www.w3.org/2000/svg">
<path transform="translate(675,316)" d="m0 0h17l10 3 9 5 10 9 7 10 4 11 1 9v118l478-1 20 1 9 4 7 6 5 9 2 7v4h46l13-1 3-12 6-8 7-6 7-3 9-1h121l25 1 14 3 12 5 14 8 13 12 7 8 8 13 5 12 3 12 1 8 1 68 27 8 33 12 29 12 39 19 23 13 23 14 15 10 20 14 18 14 10 8 13 11 21 18v2l4 2 24 24 7 8 13 14 9 11 13 16 14 19 7 10 16 24 12 20 12 21 8 15 13 28 13 31 12 34 10 35 8 34 6 36 5 39 2 19v76l-5 46-6 38-7 34-9 33-12 37-12 30-11 25-11 23-12 22-12 20-9 10-11 4h-14l-7-3-5 1-7 11-14 18-11 14-1 4 7 10 2 6v12l-3 8-7 10-34 34-8 7-11 10-11 9-15 12-19 14-20 14-21 13-22 13-27 14-16 8-25 11-26 10-36 12-10 3-1 1-1 66-2 14-5 15-9 16-12 14-12 9-17 9-20 6h-1017l-11-7-8-9-3-10v-6h-60v7l-4 10-7 8-8 5-4 2h-292l-20-6-17-9-10-8-10-10-10-15-7-17-3-12v-1416l6-18 7-14 9-12 11-11 14-9 13-6 17-4 20-1h324l1-69 2-12 4-9 7-11 8-7 12-6 19-5 194-44zm-9 63-88 20-75 17-18 4-2 1-1 57 1 3h189l1-1v-101z" fill="#B5E79F"/>
<path transform="translate(1345,480)" d="m0 0h121l25 1 14 3 12 5 14 8 13 12 7 8 8 13 5 12 3 12 1 8 1 68 27 8 33 12 29 12 39 19 23 13 23 14 15 10 20 14 18 14 10 8 13 11 21 18v2l4 2 24 24 7 8 13 14 9 11 13 16 14 19 7 10 16 24 12 20 12 21 8 15 13 28 13 31 12 34 10 35 8 34 6 36 5 39 2 19v76l-5 46-6 38-7 34-9 33-12 37-12 30-11 25-11 23-12 22-12 20-9 10-11 4h-14l-7-3-5 1-7 11-14 18-11 14-1 4 7 10 2 6v12l-3 8-7 10-34 34-8 7-11 10-11 9-15 12-19 14-20 14-21 13-22 13-27 14-16 8-25 11-26 10-36 12-10 3-1 1-1 66-2 14-5 15-9 16-12 14-12 9-17 9-20 6h-1017l-11-7-8-9-4-16 3-10 7-10 11-7 10-2 1e3 -1 11-4 7-6 5-10 1-7v-1392l-3-9-4-7-7-6-9-3-30-1-117-1-7-3-6-4-6-6-4-10-1-7 3-12 6-8 7-6 7-3z" fill="#595974"/>
<path transform="translate(1345,480)" d="m0 0h121l25 1 14 3 12 5 14 8 13 12 7 8 8 13 5 12 3 12 1 8 1 68 27 8 33 12 29 12 39 19 23 13 23 14 15 10 20 14 18 14 10 8 13 11 21 18v2l4 2 24 24 7 8 13 14 9 11 13 16 14 19 7 10 16 24 12 20 12 21 8 15 13 28 13 31 12 34 10 35 8 34 6 36 5 39 2 19v76l-5 46-6 38-7 34-9 33-12 37-12 30-11 25-11 23-12 22-12 20-9 10-11 4h-14l-9-4-5-4-6-10-2-5v-12l4-11 9-15 6-11 14-27 12-26 15-39 9-28 10-40 5-25 4-27 3-31 1-17v-53l-3-37-5-38-7-34-9-35-12-36-11-28-11-24-13-26-12-21-12-19-12-18-14-19-11-14-11-13-9-11-13-13-7-8-11-11-2-1v-2l-4-2-9-9-8-7-13-11-17-13-15-11-27-18-20-12-25-14-29-14-31-13-30-11-5-1v323l9 8 11 9 13 12 10 10 7 8 12 14 13 18 1 4 3 1 5 10v2l3 1 4 10 10 21 9 24 6 22 5 23 3 24 1 12v28l-3 31-5 25-8 28-8 21-12 25-12 21-10 14-10 13-9 10-7 8-19 19-22 18v323l10-3 28-10 29-12 35-17 23-13 21-13 12-8 17-12 13-10 16-13 11-9 16-15 10-9 19-19 9-8 10-3 10 1 9 3 7 6 5 8 2 6v12l-3 8-7 10-34 34-8 7-11 10-11 9-15 12-19 14-20 14-21 13-22 13-27 14-16 8-25 11-26 10-36 12-10 3-1 1-1 66-2 14-5 15-9 16-12 14-12 9-17 9-20 6h-1017l-11-7-8-9-4-16 3-10 7-10 11-7 10-2 1e3 -1 11-4 7-6 5-10 1-7v-1392l-3-9-4-7-7-6-9-3-30-1-117-1-7-3-6-4-6-6-4-10-1-7 3-12 6-8 7-6 7-3z" fill="#010002"/>
<path transform="translate(675,316)" d="m0 0h17l10 3 9 5 10 9 7 10 4 11 1 9v118l478-1 20 1 9 4 7 6 5 9 3 11-1 5-4 10-8 9-10 5h-499v161l-2 14-4 13-8 16-8 11-9 10-12 9-14 8-16 5-10 2h-23l-15-3-16-6-13-8-9-7-9-9-11-16-7-16-4-17v-25l4-18 6-14 8-12 9-10 8-8 15-10 16-7 13-3 8-1h17l19 4 7 2v-64h-191v232l-4 17-6 14-6 9-7 9-5 6-14 11-12 7-18 6-10 2h-24l-18-4-16-7-12-8-10-9-10-11-7-11-6-15-3-11-1-6v-25l3-15 6-15 8-13 9-11 10-9 14-9 16-7 13-3 9-1h13l18 3 11 4-1-131-332 1-11 2-11 8-6 10-1 6v1393l3 11 6 8 9 6 4 1 280 1 11 3 6 4 5 4 5 8 3 10-2 11-5 9-7 7-10 5h-292l-20-6-17-9-10-8-10-10-10-15-7-17-3-12v-1416l6-18 7-14 9-12 11-11 14-9 13-6 17-4 20-1h324l1-69 2-12 4-9 7-11 8-7 12-6 19-5 194-44zm-9 63-88 20-75 17-18 4-2 1-1 57 1 3h189l1-1v-101z" fill="#010001"/>
<path transform="translate(65,1941)" d="m0 0 11 1 6 1 30 1h1323l53-1 15-1 3 2v19l-3 6h2l-2 5-7 8-9 4-4 1-1e3 1-10 2-9 6h-2l-2 4-5 8-3 8h-58l-5-12-5-7-9-6-11-3-280-1-8-3-9-8-4-7 1-26z" fill="#97D4A5"/>
<path transform="translate(995,1125)" d="m0 0h25l20 3 16 5 18 8 11 7 14 10 16 16 12 17 10 19 7 21 3 17v33l-4 20-5 15-8 16-7 12-9 11-9 10-10 9-10 7-16 9-14 6-18 5-22 3h-14l-22-3-15-4-16-7-10-5-12-8-11-9-7-6-7-8-8-11-9-14-8-19-5-18-2-14v-26l2-16 7-23 8-17 8-12 11-14 8-8 11-9 15-10 16-8 18-6z" fill="#020102"/>
<path transform="translate(1145)" d="m0 0h17l25 7 21 9 17 9 14 10 10 8 13 12 9 10 11 15 12 21 10 25 6 24 3 22 1 10v18l-4 11-8 9-8 4-8 2-10-1-9-4-7-6-5-10-1-3-3-35-6-25-7-17-9-15-9-11-9-9-12-9-12-8-3-1v256l-2 21-6 18-7 13-11 14-11 10-13 8-11 5-13 4-11 2h-22l-18-4-16-7-12-8-12-11-9-11-8-14-6-17-2-10v-25l4-17 5-12 6-11 11-14 11-10 13-8 13-6 17-4 9-1h11l15 2 14 4 1-216 6-12 8-7z" fill="#010102"/>
<path transform="translate(1660,862)" d="m0 0h8l11 4 11 8 11 9 14 12 15 14 22 22 7 8 12 14 15 20 13 18 13 21 12 21 14 28 13 32 11 33 7 27 5 24 5 34 2 23 1 36-2 38-4 32-6 31-8 31-12 36-10 24-12 25-13 25-10 16-10 15-12 17-10 12-7 9-9 10-7 8-14 15-9 9-8 7-12 11-17 13-9 7-8 4-3 1h-12l-10-4-9-8-4-7-1-4v-12l3-9 9-10 16-13 10-8 12-11 8-7 11-11 7-8 9-10 11-14 14-19 11-17 10-17 13-24 11-25 10-27 9-30 6-27 5-32 2-22v-46l-3-33-5-30-7-30-9-29-10-26-12-26-10-19-14-23-14-20-7-9-13-16-9-10-7-8-18-18-8-7-14-12-10-8-10-9-6-9-1-5v-9l3-9 4-6 9-8z" fill="#010001"/>
<path transform="translate(670,1125)" d="m0 0h76l17 3 17 7 11 7 11 9 10 11 10 17 6 18 2 13v14l-3 16-4 12-8 15-8 10-12 12-13 8-12 6-15 4-6 1h-43v70l-3 9-6 8-8 6-5 2h-16l-12-6-6-7-4-10v-232l3-7 6-8 8-6z" fill="#010002"/>
<path transform="translate(1223,1125)" d="m0 0h76l17 3 17 7 13 9 11 9 9 11 8 14 5 12 3 12v29l-4 15-5 12-6 10-8 10-10 10-14 9-13 6-14 4-6 1-22 1h-21v68l-3 10-6 8-8 6-5 2h-16l-12-6-7-9-3-7v-234l4-8 8-9 8-4z" fill="#020102"/>
<path transform="translate(214,1125)" d="m0 0h11l10 4 8 7 6 12v48l6-4 17-16 12-11 10-9 15-14 12-10 9-4h13l10 4 8 7 5 9 1 4v12l-4 9-8 10-10 9-13 12-10 9-16 15-8 7-15 14-8 7-3 3 2 4 20 20 8 7 14 14 8 7 19 19 8 7 17 17 5 8 2 8v8l-4 11-8 9-10 5h-16l-10-5-10-9-14-14-8-7-23-23-8-7-12-12-3-1 1 3v16l-1 36-4 10-6 7-11 6h-16l-9-4-7-6-5-8-2-9v-224l2-9 6-8 8-7z" fill="#010102"/>
<path transform="translate(1e3 1185)" d="m0 0h13l15 2 16 6 11 7 10 9 9 10 8 16 4 13 1 6v23l-4 15-8 16-9 11-7 7-14 9-12 5-13 3h-24l-16-4-11-5-14-10-11-12-8-14-4-10-3-14v-24l6-18 7-12 8-10 10-9 11-7 11-5 11-3z" fill="#B5E7A0"/>
<path transform="translate(1568,1099)" d="m0 0 4 2 11 13 14 20 12 22 10 23 6 19 5 22 3 22 1 27-1 18-3 22-6 25-6 18-9 20-10 19-11 16-10 13-8 10-2-1z" fill="#F9FBF9"/>
<path transform="translate(1915,1533)" d="m0 0h3l2 1-5 13-1 4-2 5-14 25-2 7v12l6 12 4 5 2 2-4 4-10 14-13 17-10 13-4-2-9-3-10-1-10 3-10 9-3 1-2 4-20 20-8 7-12 11-11 9-17 14-19 14-18 12-16 10-6 1-8 5-7 3-6 3h-2v2l-7 2v2l-10 2v2l-14 5-3-1v2l-5 2-4 1-1 2-9 2-3 1v2h-2v-2h-2v2l-8 3h-4l-2 4-2-1-1 2-7 1-3 3-5 2-5-3-1-5v-7l2-5-1-13-3 1v-2l12-5 22-8 20-8 21-9 7-2-2 4h-2l-2 3 5-1 6-3h3v-2l9-3 11-6 12-6 11-7 9-6 11-7 12-8 11-8 4-1v-2h3v-2l10-8 11-9 5-3 12-11 3-4 3-1 1-2h3v-2l4-1 1-3 6-4 4-4 13-10 10-8 7-2h2l4-1 2 1v-2l9-3 2-4 6-2 4-16 4-5-1-10-1-4 5-10 10-14 7-10 5-9 2-1z" fill="#3E454E"/>
<path transform="translate(419,1234)" d="m0 0h140l9 3 9 7 6 10 2 7v8l-4 10-6 8-7 5-6 2-67 1h-64l-16-1-9-4-7-6-5-8-2-7v-10l4-10 7-8 10-6z" fill="#030203"/>
<path transform="translate(381,724)" d="m0 0h13l12 5 10 9 6 12 1 3v12l-5 12-7 9-9 6-10 3h-9l-12-4-10-8-5-8-4-13v-7l3-10 5-8 7-7 7-4z" fill="#AD565E"/>
<path transform="translate(634,659)" d="m0 0 13 1 12 6 7 7 5 9 2 10-1 12-6 12-7 7-9 5-10 2-12-1-10-5-7-6-6-11-2-6-1-8 3-13 6-9 9-8 8-3z" fill="#AD565E"/>
<path transform="translate(1083,293)" d="m0 0h12l10 4 6 4 7 7 5 11 1 4v12l-4 10-6 8-8 6-8 4-4 1h-11l-10-4-8-6-6-7-5-11-1-11 4-12 6-9 7-6 9-4z" fill="#AE565E"/>
<path transform="translate(706,1185)" d="m0 0h32l11 2 10 6 7 8 3 9v14l-4 9-7 8-6 4-10 3h-36z" fill="#B4E6A0"/>
<path transform="translate(1259,1185)" d="m0 0h32l10 2 8 4 5 4 6 9 2 6v14l-5 10-6 7-11 6-5 1h-36z" fill="#B4E6A0"/>
<path transform="translate(1094,539)" d="m0 0h95l42 1-3 2-41 1h-179v-2h-275v-1z" fill="#749487"/>
<path transform="translate(200,540)" d="m0 0h222l1 2v129l-4-2 1-9 1-117h-54v-2h-167z" fill="#739087"/>
<path transform="translate(90,540)" d="m0 0h110l167 1v1l-107 1h-88l-64-1-18-1z" fill="#97D4A6"/>
<path transform="translate(1198,1153)" d="m0 0h1v227h-1l-1-14-1-56 1-149z" fill="#94CFA4"/>
<path transform="translate(1333,539)" d="m0 0 121 1 30 1v1l-85 1h-24l-34-1-8-2z" fill="#94CEA3"/>
<path transform="translate(422,542)" d="m0 0h1v129l-4-2 1-9 1-34z" fill="#78988C"/>
<path transform="translate(1698,1774)" d="m0 0h2l-1 3-23 13-9 5h-2l1-4 7-2v-2l18-9z" fill="#515369"/>
<path transform="translate(391,2007)" d="m0 0 2 1 1 4 2 1 45 1v1l-48 1-2-5z" fill="#B8E7A7"/>
<path transform="translate(1681,1783)" d="m0 0m-1 1m-4 1h4v3l-13 7h-2l1-4 7-2v-2z" fill="#52546A"/>
<path transform="translate(1506,1945)" d="m0 0h1v21l-1 3h-3l2-6z" fill="#B1E2A2"/>
<path transform="translate(468,1989)" d="m0 0 3 1-8 6h-2l-2 4h-2l2-4 6-5z" fill="#A6D69D"/>
<path transform="translate(1500,1974)" d="m0 0 1 3-7 6-5 1 4-4h2v-2z" fill="#ADDEA3"/>
<path transform="translate(1711,1766)" d="m0 0h2l-1 3-7 4h-3v-2h2l1-2h3v-2z" fill="#52546A"/>
</svg>
